<svg viewBox="0 0 755 384" xmlns="http://www.w3.org/2000/svg" xml:space="preserve" style="fill-rule:evenodd;clip-rule:evenodd;stroke-linejoin:round;stroke-miterlimit:2"><path d="M258.73 341.82c4.19-9.71 8.5-19.71 16.03-27.33 4.59.78 8.77 3.34 12.21 6.4 6.79 7.86 12.59 16.58 17.33 25.84 1.52.59 2.69-1.03 3.9-1.68 4.94-3.16 9.99-6.51 15.9-7.46 13.25-3.97 26.94-7.36 40.86-6.91 12.24-.3 24.42 1.44 36.25 4.51 6.14 2.35 13.1 3.01 18.42 7.17 2.66 1.83 5.57 3.3 8.59 4.46 4.37-6.45 8.01-13.45 13.4-19.16 3.99-5.12 7.94-10.85 14.28-13.21 3.31 1.75 7.09 3.26 8.9 6.81 3.13 5.8 6.46 11.56 8.85 17.71 1.2 4.64 3.74 8.83 4.57 13.57.97 5.52 3.28 10.75 3.49 16.41 1.18 4.96.61 10.09 1.55 15.08.41 1.72-.12 3.44-.68 5.06 2.28 4.06 3.05 8.76 5.4 12.78 4.75 8.94 9.06 18.31 10.91 28.32 4.41 15.03 5.27 31.37 1.34 46.63-1.36 3.95-1.67 8.23-3.48 12.03-5.13 11.16-11.62 21.85-20.2 30.71-7.28 6.85-15.08 13.19-23.6 18.42-1.03.95-3.68.94-3.7 2.54 7.91 4.6 15.34 10.1 22.3 16.07 7.22 7.61 13.31 16.37 17.63 25.94 1.25 5.03 3.13 9.87 4.54 14.85 6.82.36 13.69.41 20.5-.15 3.71-10.33 6.55-21.15 12.49-30.5 7.37-12.35 19.29-20.92 30.54-29.46 1.05-.8 3.74-1.83 2.17-3.44-5.49-3.94-11.75-6.87-16.57-11.7-6.42-6.32-12.9-12.8-17.08-20.88-4.16-8.03-8.28-16.22-9.87-25.22-2.01-5.14-1.21-10.7-1.88-16.04-.77-3.86.48-7.71.32-11.59l2.36-.08c.67-.68 1.34-1.36 2.03-2.03 2.34 1.7 3.93 4.15 5.34 6.64.23-1.35.48-2.69.74-4.03.3.28.89.84 1.19 1.12.25 1.28.52 2.57.8 3.87 2.52 1.02 4.71 2.75 6.04 5.16.15 1.16.28 2.32.41 3.48 1.01 15.07 6.7 30.08 17.27 41.05 2.62 2.66 5.42 5.14 8.26 7.57 2.82 2.59 6.13 4.55 9.17 6.87 7.82 5.6 17.09 8.54 26.08 11.7 7.26 2.11 14.5 4.32 22 5.43 1.28 2.54 2.89 5.43 2.02 8.37-.89 1.18-2.4 1.66-3.61 2.4-1.74-.18-3.47-.35-5.19-.5-.15 6.26.52 12.49.52 18.75.17 4.49 1.21 9.27 4.86 12.27 9.65 7.89 21.9 12.36 34.36 12.74 3.91-1.11 8.08-1.37 11.78-3.2 6.57-3.14 13.47-6.34 18.35-11.93 3.38-3.65 2.78-8.95 4.25-13.39.68-4.76.22-9.58.3-14.36-6.24.02-12.48.22-18.69.67 1.06-.57 2.1-1.17 3.15-1.76.33-1.91.67-3.83 1.02-5.73.87.34 1.75.68 2.63 1.03.12-.8.37-2.41.5-3.21 9.39-.37 18.24-3.57 27.16-6.23 1.13 2.04 2.9 3.52 5.03 4.46-.96.65-1.9 1.32-2.84 1.98 1.77-.14 3.58-.63 5.36-.34 1.44.69 2.67 1.76 3.96 2.71-1.63-.2-3.26-.4-4.87-.59 1.1 1.08 2.2 2.17 3.32 3.27-3.99 1.23-8.13 1.85-12.15 2.99.58 4.48 1.39 9.02.38 13.51 3.8 2.68 7.28 5.92 11.6 7.78 12.01 5.24 22.35 13.45 33.28 20.52 2.72 1.62 5.96 2.94 9.17 2.07 2.85-.82 4.46-3.69 4.97-6.45 3.31 1.18 8.44 3.76 10.84-.23.73-.22 1.48-.44 2.24-.64.03-1.1.07-2.2.1-3.3 1.01 3.98 1.35 8.12 2.12 12.16-.61 1.04-1.2 2.1-1.78 3.16-1.97.69-5.32.76-4.59 3.73 16.11.79 32.27.28 48.41.5 3.04.16 6.04-1.1 9.06-.24 2.34-.74 4.75-.1 6.8 1.15 7.17 4.23 14.45 8.52 20.27 14.59 4.7 4 8.7 8.71 13.5 12.56 2.57 3.85 6.67 6.9 7.76 11.57.73 3.67-1.68 6.82-4.41 8.94-3.85 3.6-9.5 3.3-14.15 5.22-3.99 1.64-8.35 2.05-12.38 3.55-4.63 2.23-9.71 3.28-14.51 5.06-5.21-.44-9.98-3.04-14.87-4.75-9.12-4.16-18.56-7.51-27.61-11.78 1.1-4.56 3.04-9.02 6.55-12.25 5.89-6.86 11.73-13.77 17.6-20.66-16.43.16-32.88-.24-49.31.1 2.81 9.2 6.7 18.07 8.85 27.47.51 2.42 1.97 4.55 2.28 7.03.71 5.2 3.28 9.91 4.27 15.05 1.34 5.63 4.94 11.2 3.14 17.15-1.61 6.47-2.96 13.87-8.49 18.27-86.44-.23-172.89.23-259.33.41-6.63.63-13.29.39-19.94.47-57.05.03-114.09.53-171.13.48-18.96.73-37.98.55-56.98.61-6.35.39-11.9-4.61-14.12-10.18-2.44-12.63 1.14-25.41 5.69-37.11 1.78-6.8 4.44-13.32 7.28-19.73.9-2.39 1.71-4.82 2.71-7.16 1.27-2.62 2.82-5.08 4.33-7.56-3.1-1.04-6.57-.87-9.48-2.38l-.39-1.6c3.39.33 6.74.96 10.05 1.72 1.15-1.75 2.22-3.54 3.22-5.37-7.1-1.36-14.34-1.96-21.35-3.72-4.07-1.02-8.28-1.11-12.43-1.56-4.61-1.71-9.6-2.05-14.16-3.91-3.34-1.34-6.86-2.1-10.29-3.17-4.24-2.3-9.13-3.04-13.21-5.64-2.64-1.32-5.58-1.99-8.01-3.71-4.06-2.68-8.73-4.48-12.28-7.87-2.89-2.5-6.63-3.79-9.4-6.47-2.48-2.01-3.02-5.57-5.69-7.42-3.84-2.83-6.78-6.65-9.44-10.56-5.73-7.11-10.46-15.15-13.21-23.9-1.51-3.76-3.23-7.45-3.65-11.54-1.4-3.39-1.68-7.04-2.3-10.61-.86-11.69-1-23.56 1.03-35.14 2.02-7.85 5.3-15.27 6.97-23.21 1.56-3.65 3-7.36 4.73-10.94-1.96-1.86-3.91-3.74-5.86-5.61-.58-5.2-.03-11.46 4.07-15.18 7.7-5.49 16.77-8.34 25.33-12.09 10.51-2.2 21.22-3.85 31.98-3.15 4.18 1.09 8.49 1.66 12.78 2.14 8.32 1.5 14.71 7.65 22.66 10.09 2.58-6.04 6.33-11.47 9.08-17.42.47-.85 1.03-1.64 1.7-2.36.86-6.35 1.22-12.74 1.49-19.14 1.43-6.87 1.93-13.87 3.35-20.74.48-5.08 3.04-9.57 4.59-14.34m17.73 5.81c-3.16 6.37-3.55 13.58-4.85 20.46-1.49 8.5 2.18 16.61 4.43 24.61-4.07 3.74-7.22 8.33-10.64 12.64-5.1 8.53-10.19 17.35-12.23 27.19-1.18 5.58-3.18 11.11-2.79 16.9-.82 4.4-1.34 9.02.1 13.37 1.9.37 3.94.13 5.72 1.02-2.25-.02-4.49-.15-6.72-.35 2.07 13.92 6.54 28.23 16.51 38.59 4.82 5.16 9.63 10.48 15.57 14.39 11.42 9.36 25.27 15.26 39.47 19.07 15.94 5.8 32.97 8.86 49.95 7.58 5.85-.81 11.85-.14 17.64-1.56 4.59-.04 8.97-1.54 13.37-2.68 8.39-1.82 16.56-4.64 24.45-8 6.95-1.79 13-5.82 19.09-9.46 7.33-5.53 15.1-10.76 20.81-18.07 9.52-11.14 17.29-24.8 17.5-39.81-.06-10.54-.21-21.25-3.39-31.4-3.15-12.04-9.58-22.91-16.49-33.16-2-3.18-4.99-5.59-6.9-8.82 2.37-2.14 4-4.99 4.85-8.05 1.81-11.1-.06-22.47-3.37-33.11-1.04-2.95-1.44-6.62-3.94-8.72-3.78 6.74-9.35 12.23-13.26 18.9 1.39 2.1 2.84 4.17 4.4 6.17-2.02.92-4.13 1.63-6.26 2.24-1.08 1.59-1.98 3.3-2.54 5.15-1.3-.51-2.63-1.02-3.69-1.95-5.33-4.75-12.04-7.43-18.15-10.98-10.96-4.56-22.3-8.6-34.14-10.01-4.34-.35-8.71-.38-13.02-1.09-9.88.92-20.03.75-29.58 3.88-7.12 1.35-13.47 4.98-20.28 7.29-6.14 3.08-12.17 6.45-17.74 10.49-1.22.73-2.48 1.9-4.01 1.44-.65-2.2-1.52-4.29-2.93-6.11-3.21-6.45-5.57-13.43-10-19.19-1.31-2.03-1.63-4.49-2.41-6.73-3.12 1.31-3.06 5.26-4.53 7.87m-98.41 77.42c-5.24 1.26-9.83 4.21-15.02 5.62 2.71 2.62 5.34 6.31 3.89 10.27-.46 6.44-3.83 11.96-5.79 17.98-2.4 4.93-3.94 10.19-5.94 15.28-3.87 15.75-4.19 33.12 2.42 48.16 2.52 9.18 7.56 17.4 12.84 25.23 15.33 18.06 37.07 31.11 60.69 34.32 5.33.92 9.9 4.32 15.32 4.77 1.91-3.62 3.31-7.46 5.01-11.17l.38.03c1.74-3.81 3.06-7.81 5.13-11.47 8.05-9.46 16.95-19.4 29.36-22.82-4.27-1.64-8.09-4.15-11.66-6.98-11.21-7.5-21.58-16.66-28.89-28.11-6.94-9.5-12.56-20.39-13.44-32.31.07-5.96.15-11.93.02-17.89-.17-7.11 1.31-14.39-.83-21.33-8.99-5.26-17.72-12.14-28.51-12.84-8.41-.41-17.06.2-24.98 3.26m405.11 120.17c-2.4 1.34-5.25 1.36-7.74 2.47-5.89 3.32-12.25 5.96-17.45 10.38-5.55 3.57-11.29 7.56-14.31 13.63-4.53 5.09-7.24 11.47-9.29 17.9 6.31.16 12.61-.24 18.92-.25 5.39-7.77 13.62-12.57 20.82-18.4 3.36-.69 6.18-2.79 9.49-3.65 2.98-.86 5.95-1.78 8.88-2.83-.14-7.29 1.25-14.49 1.29-21.77-3.79-.97-7.35.8-10.61 2.52m-162.83 6.08c-.05 4.18.03 8.37.02 12.57 8.78.83 16.43 6.21 21.46 13.26 3.42 4.53 5.01 10.05 7.03 15.28.71.14 2.14.42 2.85.57l-.08-3.15c.9.67 1.66 1.48 2.31 2.41 3 1.83 6.66 1.32 10.02 1.43 3.85-.15 7.67.48 11.51.76-2.49-13.21-12.53-23.08-22.13-31.7-9.81-6.48-21.2-10.79-32.99-11.43m-140.2 9.98c-2.59 1.74-2.94 4.99-4.23 7.57-6.23 6.7-10.24 15.1-13.56 23.54 4.87 1.64 9.73-.79 13.65-3.54-1.24 1.25-2.43 2.59-2.62 4.44 3.63.06 7.25.16 10.88.36.74-1.1 1.49-2.18 2.16-3.3 1.84.2 3.68.38 5.52.56 4.68-6.29 9.06-12.83 14.09-18.85 1.94-2.19 7.42-2.6 5.59-6.51.67-4.76.67-9.63 2.04-14.27-11.64 1.06-23.79 3.1-33.52 10m45.68-6.12c-1.69 7.19-1.97 15.39 2.18 21.84 2.73 3.26 6.01 6.06 9.34 8.68 5.29 3.16 10.42 6.94 16.61 8.11 4.6 1.44 9.49.49 14.17 1.4 7.19-.99 14.56-2.38 20.85-6.13 2.56-1.1 4.91-2.59 7.33-3.97 4.08-3.63 8.23-7.72 10.16-12.92 1.96-4.8 2.16-10.02 1.91-15.13-.07-1.29-1.35-2.01-2.07-2.9-2.77 1.91-6.27 1.42-9.39 2.25-5.24 1.26-10.67 1.08-16.01 1.42-1.63.48-3.32.72-5 .74-15.03.33-30.22-.37-44.98-2.96-1.7-.21-3.4-.33-5.1-.43m379.86 28.89c-2.76 4.28-5.01 8.86-7.58 13.25 6.31.08 12.62.04 18.93-.01-2.64-5.32-8.47-8.02-11.35-13.24m-284.18 1.33c-.26 4.4-.21 8.81-.2 13.22 3.32.27 6.45-1.18 9.76-.78-.48-5.5-3.57-11.59-9.56-12.44m-111.37-.46c-1.68 3.95-3.85 7.68-5.33 11.72 4.78-.15 9.56-.06 14.34.15-4.37-2.74-7.33-7.08-9.01-11.87m270.87 3.14c-4.05 2.06-6 6.34-9.17 9.37 8.19-.58 15.74 3.08 23.66 4.24-2.08-3.05-3.21-6.59-4.5-10l-.21-.02c-1.29-2.33-2.99-4.37-4.71-6.38-1.7.92-3.4 1.85-5.07 2.79m-334.84 13.32c-2.59 1.18 1.48 3.09 2.54 1.49.74-1.41-1.61-1.94-2.54-1.49m253.13 6.93c.19 1.3.23 2.69.9 3.88.14 1.02.28 2.04.4 3.08 2.86 2.08 6.64 1.57 9.92 2.5.34-2.04.66-4.08.92-6.12-.06-1.31-.11-2.61-.15-3.9-3.97.55-7.98.71-11.99.56m36.21.06c-2.06 6.86-6.52 13.22-6.18 20.63.04 5.01.04 10.02.02 15.03.01 5.23-.05 10.46.01 15.7 12.1.04 24.22-.01 36.31-.3 20.11.33 40.24.03 60.36.12 1.77-.03 3.66.12 5.3-.73 35.44-.34 70.88-.65 106.32-.56-.08-2.53-.99-4.88-2.05-7.12-2.53-11.17-4.38-22.64-9.45-33.03-.73-2.85-1.98-5.52-2.79-8.34-1.69-.7-3.45-1.14-5.25-1.31-15.34-.28-30.69-.03-46.04-.17-5.85-.05-11.7-.02-17.54.01-6.37.05-12.75-.11-19.12.12-.5-.07-1.52-.21-2.03-.28-.14.95-.28 1.92-.41 2.89-.06-.69-.2-2.08-.26-2.77-1.47.01-2.93.02-4.39.04-3.32.02-6.65.01-9.97.02-1.99 0-3.97.01-5.94.05-4.92-.01-9.84-.15-14.74.19l.02-.29c-20.72.07-41.45-.06-62.18.1m-79.01.9c-13.15.55-26.34-.06-39.5.46-8.92 1.53-18.02.38-26.99 1.28-1.63.02-2.97.89-3.82 2.25 11.26 1.07 22.57-.94 33.86-.67 4.69.18 9.29-.85 13.95-1.06 11.88.05 23.8.08 35.62-1.36-3.72-2.86-8.83-1-13.12-.9m-165.55 5.43c6.68.62 13.39.11 20.09.5 19.17.04 38.35.68 57.48-.6 3.74 1.2 7.34 3.49 11.48 2.98-3.93-1.3-7.12-3.78-10.24-6.34-4.25-.05-8.51.71-12.78.44-12.33-.16-24.71.74-36.98-.88-8.99-.39-18.02-.23-27.01-.1-2.3-.24-2.05 2.49-2.04 4m524.46 3.73c-6.91 5.44-12.91 11.94-18.6 18.63 5.13 2.43 10.37 4.56 15.53 6.89 5.51 1.16 10.56 6.32 16.42 3.9 9.69-3.15 19.61-5.62 29.07-9.45-2.88-2.72-5.46-5.78-8.76-8-4.15-3.94-8.79-7.37-13.01-11.25-3.58-2.43-6.64-5.6-10.37-7.78-4.54-.34-7.16 4.49-10.28 7.06m-534 26.79c28.21.32 56.43-.03 84.65.14 1.91.04 3.81-.16 5.7-.44.08-3.35.07-6.71.01-10.06-5.25-.47-10.53-.15-15.79-.25-22.98.17-45.98-.39-68.94.15-3.36 2.3-3.96 6.95-5.63 10.46m96.94-9.93c0 3.24 0 6.5-.02 9.75 33 .5 66.01.09 99.01.23.84-3.28 1.35-6.63 1.52-10.01-33.5.08-67.01-.06-100.51.03z" style="fill:#443e3d;fill-rule:nonzero" transform="translate(-134.235 -314.45)"/><path d="M607.46 320.99c1.01-3.5 5.66-3.36 8.55-4.21 6.24-.66 12.38.85 18.47 1.97 9.87 3.58 19.75 8.07 27.33 15.55 3.1.96 4.54 4.05 7.02 5.89 4.38 3.57 7.08 8.62 10.37 13.11.93.25 1.86.53 2.8.82 5.29.15 10.2 2.21 15.21 3.68 25.53 7.9 48.71 23.79 64.74 45.25 5.98 10.33 12.1 20.97 13.99 32.94 2.57 8.13 1.36 16.75 2.12 25.11-.82 5.13-.36 10.41-1.82 15.46-1.78 5.4-1.73 11.31-4.29 16.47-1.3 3.82-3.71 7.13-4.92 10.98 5.97 1.64 11.85 3.53 17.66 5.68-.47-10.86-3.32-21.74-1.46-32.63-.23-6.81 1.76-13.39 3.15-20 .67-3.75 4.48-5.33 7.09-7.55 1.79-1.54 4.26-2.79 6.64-1.8 2.49.99 4.1 3.24 5.98 5.04 3.9 4.27 9.44 6.72 12.88 11.45 4.73 4.84 9.37 9.79 13.77 14.95 1.93 1.87 4.33 3.88 7.21 3.68 9.12-6.49 13.36-17.27 18.02-27.02 1.33-3.95 2.96-7.81 3.91-11.88 1.2-4.49 2.24-9.37 5.63-12.8 3.21-3.42 8.95-3.67 12.9-1.46 4.16 3.8 5.77 9.44 6.48 14.86 2.65 16.64 2.61 33.84-.96 50.34-4.24 19.62-16.26 38-33.9 48.04-4.32 2.87-9.29 4.5-14.08 6.38-6.06 1.17-11.8 3.57-17.9 4.51-6.42 1.28-12.57 3.63-18.96 5-.45.36-1.34 1.09-1.78 1.45-11.06 2.78-21.35 7.72-32.1 11.47.5 2.49 1.79 4.7 2.62 7.09-.03 1.1-.07 2.2-.1 3.3-.76.2-1.51.42-2.24.64-2.4 3.99-7.53 1.41-10.84.23-2.36-9.42-6.85-18.77-14.57-24.95-7.33-6.83-16.1-11.86-25.14-16.05-2.44-1.29-5.12-.12-7.54.58-1.12-1.1-2.22-2.19-3.32-3.27 1.61.19 3.24.39 4.87.59-1.29-.95-2.52-2.02-3.96-2.71-1.78-.29-3.59.2-5.36.34.94-.66 1.88-1.33 2.84-1.98-2.13-.94-3.9-2.42-5.03-4.46 3.99-1.02 7.92-2.25 11.76-3.72 4.04-1.51 8.84-2.38 11.47-6.17-.04-.82-.11-2.46-.15-3.28 6.64-3.29 12.8-7.47 18.11-12.64 4.83-4.21 8.81-9.45 11.73-15.14 2.38-6.3 5.52-12.44 6.29-19.22.72-3.92 1.06-7.89 1.53-11.84.84-14.19-3.78-28.31-10.61-40.6-12.55-20.58-33.23-35.44-55.95-42.94a74.997 74.997 0 0 0-25.98-6.25c-4-5.68-6.87-12.14-11.49-17.37-2.57-2.46-5.23-4.83-8.03-7.03-6.99-5.08-15.36-7.63-23.4-10.53.15 6.24-.65 12.6.95 18.72 2.83 2.29 5.86 4.58 7.65 7.83.11 2.81-.77 6.45-3.81 7.4-5.38 1.62-11.1 1.26-16.53 2.63-8.09 1.97-15.78 5.23-23.44 8.43-8.34 4.09-16.99 7.97-24.01 14.2-11.23 8.51-20.16 19.93-26.17 32.63-4.15 10.38-7.56 21.58-6.52 32.87-1.33-2.41-3.52-4.14-6.04-5.16-.28-1.3-.55-2.59-.8-3.87-.3-.28-.89-.84-1.19-1.12-.26 1.34-.51 2.68-.74 4.03-1.41-2.49-3-4.94-5.34-6.64-.69.67-1.36 1.35-2.03 2.03l-2.36.08c.05-3.55.76-7.02 1.48-10.48 1.62-4.17 1.79-8.74 3.56-12.86 3.34-7.86 7.21-15.54 12.01-22.61 3.84-4.55 6.86-9.78 11.32-13.79 4.7-4.37 9.34-8.86 14.84-12.23 4.89-4.87 11.46-7.21 17.34-10.58 10.32-5.08 21.19-9.09 32.42-11.67.11-11.06-.23-22.14.15-33.19m193.01 149.96c-.09 3.38-1.13 6.73-.63 10.12.97 6.27.13 12.68 1.43 18.92.63 7.92 1.32 16.42-2.6 23.68-3.3 3.95-9.22 2.9-13.67 2.06-9.81-2.88-19.77-5.43-29.23-9.34-4.35 3.37-8.1 7.56-12.92 10.29-3.46 1.67-6.42 4.2-9.99 5.63 1.5 2.89 5.04 3.45 7.36 5.47 3.1 2.61 6.48 4.85 9.75 7.25 4.68 4.47 9.17 9.17 12.8 14.57 7.55-3.65 14.86-7.77 22.14-11.93 4.41-2.34 9.49-2.69 14.08-4.55 13.22-3.2 25.93-8.1 38.79-12.45 12.63-5.54 22.78-16.69 27.16-29.75 3.43-9.26 6.23-19.02 5.57-29.01-2.49 1.86-3.61 4.85-5.42 7.28-1.63 2.71-3.91 4.94-5.6 7.61-2.86 4.4-7.55 7.07-11.9 9.76-4.03 2.57-8.73 4.39-13.57 4.13-4.85.1-8.75-3.5-11.83-6.84-3.71-5.45-7.07-11.66-13.22-14.75-3.86-1.64-4.7-6.47-8.5-8.15z" style="fill:#463d3a;fill-rule:nonzero" transform="translate(-134.235 -314.45)"/><path d="M624.72 334.34c8.04 2.9 16.41 5.45 23.4 10.53 2.8 2.2 5.46 4.57 8.03 7.03 4.62 5.23 7.49 11.69 11.49 17.37 8.97.52 17.76 2.62 25.98 6.25 22.72 7.5 43.4 22.36 55.95 42.94 6.83 12.29 11.45 26.41 10.61 40.6-12.85 3.15-26.11 4.01-39.08 6.49-1.33-4.07-3.79-8.12-7.95-9.75-3.31-.89-6.94-.31-9.85 1.46-4.47 2.92-9.05 7.02-8.86 12.85-10.37 2.47-21.42 6.41-27.89 15.4-1.14 1.17-.77 2.75-.62 4.2-.42 2.03-1.04 4.01-1.66 5.99-7.17-2.39-14.38-6.76-22.23-5.01-5.11 1.4-10.06 3.33-15.02 5.18.14.58.43 1.73.57 2.31-1.47-.48-3.62-1.11-3.14-3.14.36-4.84 3.28-11.47-1.7-14.82-7.62-4.94-16.78-6.45-25.42-8.75-.28-.77-.56-1.52-.85-2.26-2.12-11.62-20.89-14.9-25.88-3.84-2.64-.03-5.28-.1-7.91-.2-5.66-1.55-11.75.52-17.19-2.08-3.9-1.75-8.18-.88-12.25-.56-.13-1.16-.26-2.32-.41-3.48-1.04-11.29 2.37-22.49 6.52-32.87 6.01-12.7 14.94-24.12 26.17-32.63 7.02-6.23 15.67-10.11 24.01-14.2 7.66-3.2 15.35-6.46 23.44-8.43 5.43-1.37 11.15-1.01 16.53-2.63 3.04-.95 3.92-4.59 3.81-7.4-1.79-3.25-4.82-5.54-7.65-7.83-1.6-6.12-.8-12.48-.95-18.72z" style="fill:#4ca2e6;fill-rule:nonzero" transform="translate(-134.235 -314.45)"/><path d="M276.46 347.63c1.47-2.61 1.41-6.56 4.53-7.87.78 2.24 1.1 4.7 2.41 6.73 4.43 5.76 6.79 12.74 10 19.19 1.41 1.82 2.28 3.91 2.93 6.11 1.53.46 2.79-.71 4.01-1.44 5.57-4.04 11.6-7.41 17.74-10.49 6.81-2.31 13.16-5.94 20.28-7.29 9.55-3.13 19.7-2.96 29.58-3.88 4.31.71 8.68.74 13.02 1.09 11.84 1.41 23.18 5.45 34.14 10.01 6.11 3.55 12.82 6.23 18.15 10.98 1.06.93 2.39 1.44 3.69 1.95.56-1.85 1.46-3.56 2.54-5.15 2.13-.61 4.24-1.32 6.26-2.24-1.56-2-3.01-4.07-4.4-6.17 3.91-6.67 9.48-12.16 13.26-18.9 2.5 2.1 2.9 5.77 3.94 8.72 3.31 10.64 5.18 22.01 3.37 33.11-.85 3.06-2.48 5.91-4.85 8.05 1.91 3.23 4.9 5.64 6.9 8.82 6.91 10.25 13.34 21.12 16.49 33.16 3.18 10.15 3.33 20.86 3.39 31.4-3.53 1.02-7.2 1.26-10.81 1.83-1.34.24-2.65.54-3.97.85-6.71.54-13.27 2.05-19.88 3.23-15.2 2.24-30.89 4.58-44.4 12.4-6.42 3.7-10.85 9.78-15.72 15.19-3.29 4.39-4.62 9.83-6.3 14.96-.22.59-.67 1.77-.89 2.36-1.49-4.06-4.23-8.28-8.92-8.8-5.19-.31-10.95-1.01-15.55 1.99-2.35 1.23-3.77 3.54-5.24 5.64-2.27-3.27-2.71-7.36-4.78-10.72-3.15-5.3-7.68-9.55-11.54-14.29-2.54-3.2-5.85-5.68-9.45-7.56-6.67-3.36-13.74-5.94-21.11-7.26-4.9-1.26-9.83-2.51-14.86-3.16-7.92-1.33-15.82-2.73-23.72-4.15-2.61-.57-5.21-1.15-7.83-1.66 1.33-.11 2.67-.24 4.01-.39-1.98-2.36-4.3-4.4-6.85-6.11-2.96-1.93-3.72-5.68-5.65-8.44-.39-5.79 1.61-11.32 2.79-16.9 2.04-9.84 7.13-18.66 12.23-27.19 3.42-4.31 6.57-8.9 10.64-12.64-2.25-8-5.92-16.11-4.43-24.61 1.3-6.88 1.69-14.09 4.85-20.46m24.8 25.67c-1.43-.01-2.27 2.74-.4 2.69 1.4.01 2.23-2.76.4-2.69z" style="fill:#fa7e45;fill-rule:nonzero" transform="translate(-134.235 -314.45)"/><path d="M301.26 373.3c1.83-.07 1 2.7-.4 2.69-1.87.05-1.03-2.7.4-2.69z" style="fill:#946745;fill-rule:nonzero" transform="translate(-134.235 -314.45)"/><path d="M178.05 425.05c7.92-3.06 16.57-3.67 24.98-3.26 10.79.7 19.52 7.58 28.51 12.84 2.14 6.94.66 14.22.83 21.33.13 5.96.05 11.93-.02 17.89l-1.92-.24c-1.9-1.54-3.92-2.91-6.05-4.08-5.21-2.8-9.51-6.97-14.73-9.74-.92-3.75-1.43-7.73-3.35-11.13-4-5.16-14.1-3.47-15.22 3.39-.62 6.8 1.73 13.95-.29 20.56-4.2 2.81-9.35 4.6-12.3 8.97-3.23 4.56-2.52 10.49-1.9 15.73.84 8.24 3.79 16.22 8.23 23.19-1.06.55-2.12 1.1-3.18 1.66-.09 5.62 1.35 11.11 1.41 16.74.01.66.04 1.99.05 2.66-3.92-2.23-7.01-5.49-9.68-9.06-3.01-3.06-5.66-6.46-7.5-10.36-1.77.13-3.54.26-5.31.31-1-.02-2-.06-3-.09-6.61-15.04-6.29-32.41-2.42-48.16 2-5.09 3.54-10.35 5.94-15.28 1.96-6.02 5.33-11.54 5.79-17.98 1.45-3.96-1.18-7.65-3.89-10.27 5.19-1.41 9.78-4.36 15.02-5.62z" style="fill:#e0e0e0;fill-rule:nonzero" transform="translate(-134.235 -314.45)"/><path d="M191.08 452.05c1.12-6.86 11.22-8.55 15.22-3.39 1.92 3.4 2.43 7.38 3.35 11.13.48 3.25 1.37 6.42 2.55 9.48 1.84 6.95 2.92 14.54.97 21.58-3.36-1.16-6.39-4.34-10.19-3.29-3.69 1.4-2.02 5.72-1.64 8.6l-2.18 2.69c.12 8.53 6.15 15.49 12.43 20.61 2.75 2.45 1.86 6.59 2.05 9.87-4.04 3.39-9.8 2.15-14.42.8-5.35-2.21-10.57-5.2-14.4-9.63-4.44-6.97-7.39-14.95-8.23-23.19-.62-5.24-1.33-11.17 1.9-15.73 2.95-4.37 8.1-6.16 12.3-8.97 2.02-6.61-.33-13.76.29-20.56z" style="fill:#fefeff;fill-rule:nonzero" transform="translate(-134.235 -314.45)"/><path d="M250.38 449.43c1.93 2.76 2.69 6.51 5.65 8.44 2.55 1.71 4.87 3.75 6.85 6.11-1.34.15-2.68.28-4.01.39-.67-.14-2-.41-2.67-.55-1.78-.89-3.82-.65-5.72-1.02-1.44-4.35-.92-8.97-.1-13.37z" style="fill:#fd7127;fill-rule:nonzero" transform="translate(-134.235 -314.45)"/><path d="M703.3 457.26c2.91-1.77 6.54-2.35 9.85-1.46 4.16 1.63 6.62 5.68 7.95 9.75 1.01 6.11-.71 14.14-6.87 16.91-3.25 1.01-6.77 2.54-10.17 1.28-4.18-1.04-6.14-5.24-8.24-8.57-.77-1.59-1.25-3.31-1.38-5.06-.19-5.83 4.39-9.93 8.86-12.85z" style="fill:#443c3b;fill-rule:nonzero" transform="translate(-134.235 -314.45)"/><path d="M570.6 465.37c4.99-11.06 23.76-7.78 25.88 3.84-.19 6.2-4.38 12.8-10.98 13.52-3.02-.19-5.98-.78-8.91-1.47-2.47-2.55-5.63-4.71-6.95-8.13-.6-2.62.13-5.29.96-7.76z" style="fill:#463d3b;fill-rule:nonzero" transform="translate(-134.235 -314.45)"/><path d="M721.1 465.55c12.97-2.48 26.23-3.34 39.08-6.49-.47 3.95-.81 7.92-1.53 11.84-.77 6.78-3.91 12.92-6.29 19.22-2.92 5.69-6.9 10.93-11.73 15.14-8.89-7.49-17.83-14.94-26.4-22.8 6.16-2.77 7.88-10.8 6.87-16.91z" style="fill:#e1e0df;fill-rule:nonzero" transform="translate(-134.235 -314.45)"/><path d="M209.65 459.79c5.22 2.77 9.52 6.94 14.73 9.74 2.13 1.17 4.15 2.54 6.05 4.08-6.41-.36-12.55-2.39-18.42-4.89l.19.55c-1.18-3.06-2.07-6.23-2.55-9.48z" style="fill:#efeef0;fill-rule:nonzero" transform="translate(-134.235 -314.45)"/><path d="M533.25 462.53c4.07-.32 8.35-1.19 12.25.56-.5 1.54-.97 3.11-1.44 4.68 6.23-.66 12.56-.91 18.63-2.6 2.63.1 5.27.17 7.91.2-.83 2.47-1.56 5.14-.96 7.76 1.32 3.42 4.48 5.58 6.95 8.13 2.93.69 5.89 1.28 8.91 1.47 1.87 1.14 3.77 2.24 5.67 3.35-5.89-.13-11.82.08-17.6 1.29-7.18 1.07-15.58 1.56-20.83 7.22 1.78.14 3.57.27 5.38.29-2.51 2.92-5.08 5.79-7.6 8.7-10.57-10.97-16.26-25.98-17.27-41.05z" style="fill:#e5e5e4;fill-rule:nonzero" transform="translate(-134.235 -314.45)"/><path d="M249.48 463.47c2.23.2 4.47.33 6.72.35.67.14 2 .41 2.67.55 2.62.51 5.22 1.09 7.83 1.66.26 2.41 1.04 4.7 1.85 6.97.79 7.79 1.08 16.59 6.73 22.66 4.07 3.91 9.44 6.06 14.4 8.6-.49-2.15-.95-4.32-1.38-6.47 3.44 4.2 8.55 7.48 14.19 6.97.43 3.88 4 5.8 6.6 8.17 3.22 2.76 5.91 6.33 9.94 7.99 2.9 1.17 5.96 1.94 8.84 3.18 8.85 3.8 18.43 5.22 27.83 6.97 13.32 1.5 26.7-.23 39.81-2.64-.51 1.21-1.01 2.44-1.5 3.66.43.19 1.31.55 1.74.74-.62 1.76-.69 3.62-.28 5.45-2.73.01-5.26.93-6.85 3.26-5.79 1.42-11.79.75-17.64 1.56-16.98 1.28-34.01-1.78-49.95-7.58-14.2-3.81-28.05-9.71-39.47-19.07-5.94-3.91-10.75-9.23-15.57-14.39-9.97-10.36-14.44-24.67-16.51-38.59z" style="fill:#dedfdf;fill-rule:nonzero" transform="translate(-134.235 -314.45)"/><path d="M473.03 465.35c3.61-.57 7.28-.81 10.81-1.83-.21 15.01-7.98 28.67-17.5 39.81-5.71 7.31-13.48 12.54-20.81 18.07-6.09 3.64-12.14 7.67-19.09 9.46-7.89 3.36-16.06 6.18-24.45 8-4.4 1.14-8.78 2.64-13.37 2.68 1.59-2.33 4.12-3.25 6.85-3.26-.41-1.83-.34-3.69.28-5.45-.43-.19-1.31-.55-1.74-.74.49-1.22.99-2.45 1.5-3.66 7.73-2.38 15.78-3.79 23.31-6.79 7.16-4.11 14.77-7.3 22.33-10.58 13.77-6.53 22.83-19.46 30.37-32.19.21-3.34-.8-6.58-1.49-9.8.99-1.25 1.99-2.49 3-3.72z" style="fill:#d9dad8;fill-rule:nonzero" transform="translate(-134.235 -314.45)"/><path d="M545.5 463.09c5.44 2.6 11.53.53 17.19 2.08-6.07 1.69-12.4 1.94-18.63 2.6.47-1.57.94-3.14 1.44-4.68z" style="fill:#d7c6b6;fill-rule:nonzero" transform="translate(-134.235 -314.45)"/><path d="M469.06 466.2c1.32-.31 2.63-.61 3.97-.85-1.01 1.23-2.01 2.47-3 3.72.69 3.22 1.7 6.46 1.49 9.8-.22-.37-.66-1.1-.88-1.47-5.2 1.73-10.02 4.45-15.3 5.94-3.76 1.21-7.97 1.6-11.01 4.36-1.78-2.21-4.34-3.52-6.63-5.1-.4-.27-1.21-.81-1.61-1.08 5.54-2.28 11.3-4.05 16.56-6.98 5.39-2.92 13.73-1.65 16.41-8.34z" style="fill:#eaeeee;fill-rule:nonzero" transform="translate(-134.235 -314.45)"/><path d="M268.55 473c-.81-2.27-1.59-4.56-1.85-6.97 7.9 1.42 15.8 2.82 23.72 4.15-7.09 2.11-14.54 2.4-21.87 2.82z" style="fill:#d7e7ec;fill-rule:nonzero" transform="translate(-134.235 -314.45)"/><path d="M449.18 469.43c6.61-1.18 13.17-2.69 19.88-3.23-2.68 6.69-11.02 5.42-16.41 8.34-5.26 2.93-11.02 4.7-16.56 6.98.4.27 1.21.81 1.61 1.08-7.79-1.15-15.89 6.36-14.2 14.33 1.4 3.63 3.83 7.54 7.86 8.56 5.63 2.27 11.65-1.96 14.02-6.98 2.03-3.44.48-7.52-1.05-10.81 3.04-2.76 7.25-3.15 11.01-4.36 5.28-1.49 10.1-4.21 15.3-5.94.22.37.66 1.1.88 1.47-7.54 12.73-16.6 25.66-30.37 32.19-7.56 3.28-15.17 6.47-22.33 10.58-7.53 3-15.58 4.41-23.31 6.79-13.11 2.41-26.49 4.14-39.81 2.64-9.4-1.75-18.98-3.17-27.83-6.97-2.88-1.24-5.94-2.01-8.84-3.18-4.03-1.66-6.72-5.23-9.94-7.99-2.6-2.37-6.17-4.29-6.6-8.17 4.12-1.74 8.04-6.03 6.96-10.79-.13-4.44-3.32-7.9-6.63-10.47 1.19-3.29 2.04-6.69 2.46-10.16 7.37 1.32 14.44 3.9 21.11 7.26 3.6 1.88 6.91 4.36 9.45 7.56 3.86 4.74 8.39 8.99 11.54 14.29 2.07 3.36 2.51 7.45 4.78 10.72.38 3.35-.52 7.15 1.63 10.06 1.53 2.26 4.12 3.41 6.3 4.93 2.65.65 5.39 1.63 8.1.68.41.14 1.22.42 1.62.57 2.44-1.16 4.9-2.3 7.38-3.37 2.77-4.32 4.67-9.01 5.57-14.06 1.68-5.13 3.01-10.57 6.3-14.96 4.87-5.41 9.3-11.49 15.72-15.19 13.51-7.82 29.2-10.16 44.4-12.4zm217.37 16.08c6.47-8.99 17.52-12.93 27.89-15.4.13 1.75.61 3.47 1.38 5.06-2.16 1.39-4.46 2.57-6.46 4.18-1.12 3.63-.22 7.47 1.3 10.83-4.86 2.54-8.9 6.4-13.96 8.58-4 1.78-7.89 3.8-11.72 5.91-1-.74-1.95-1.45-2.93-2.17-1.03-.05-2.05-.1-3.06-.13.12-1.35.24-2.7.38-4.05 1.36.79 2.72 1.56 4.1 2.36 2.67-2.86 3.73-7.25 2.46-10.97-.15-1.45-.52-3.03.62-4.2z" style="fill:#fefefe;fill-rule:nonzero" transform="translate(-134.235 -314.45)"/><path d="M212.01 468.72c5.87 2.5 12.01 4.53 18.42 4.89l1.92.24c.88 11.92 6.5 22.81 13.44 32.31 7.31 11.45 17.68 20.61 28.89 28.11 3.57 2.83 7.39 5.34 11.66 6.98-12.41 3.42-21.31 13.36-29.36 22.82-5.17-.21-10.42-.06-15.44-1.49-6.2-1.74-12.67-2.32-18.86-4.1-12.68-4.12-25.77-7.33-37.57-13.71-.32-.18-.95-.53-1.26-.71-.26-1.73-.55-3.44-.8-5.16-.06-5.63-1.5-11.12-1.41-16.74 1.06-.56 2.12-1.11 3.18-1.66 3.83 4.43 9.05 7.42 14.4 9.63 4.62 1.35 10.38 2.59 14.42-.8-.19-3.28.7-7.42-2.05-9.87-6.28-5.12-12.31-12.08-12.43-20.61l2.18-2.69c-.38-2.88-2.05-7.2 1.64-8.6 3.8-1.05 6.83 2.13 10.19 3.29 1.95-7.04.87-14.63-.97-21.58l-.19-.55z" style="fill:#fd7d45;fill-rule:nonzero" transform="translate(-134.235 -314.45)"/><path d="M596.48 469.21c.29.74.57 1.49.85 2.26 8.64 2.3 17.8 3.81 25.42 8.75 4.98 3.35 2.06 9.98 1.7 14.82-.48 2.03 1.67 2.66 3.14 3.14 3.29.21 7.06.6 9.79-1.67 1.75-1.19 3.28-3.14 5.57-3.19 5.83-.1 11.62 1.68 16.42 5-.14 1.35-.26 2.7-.38 4.05 1.01.03 2.03.08 3.06.13.98.72 1.93 1.43 2.93 2.17-4.69 1.92-9.83 1.57-14.78 1.85-15.8.95-32.32-.57-46.42-8.29-3.91-2.41-7.82-5.27-9.4-9.78-1.01-.9-2.05-1.72-3.21-2.37-1.9-1.11-3.8-2.21-5.67-3.35 6.6-.72 10.79-7.32 10.98-13.52z" style="fill:#fafaf9;fill-rule:nonzero" transform="translate(-134.235 -314.45)"/><path d="M268.55 473c7.33-.42 14.78-.71 21.87-2.82 5.03.65 9.96 1.9 14.86 3.16-.42 3.47-1.27 6.87-2.46 10.16-4.29-2.07-9.58-.88-12.47 2.91-2.77 3.08-3.23 7.51-2.05 11.38.43 2.15.89 4.32 1.38 6.47-4.96-2.54-10.33-4.69-14.4-8.6-5.65-6.07-5.94-14.87-6.73-22.66z" style="fill:#f7f9f9;fill-rule:nonzero" transform="translate(-134.235 -314.45)"/><path d="M800.47 470.95c3.8 1.68 4.64 6.51 8.5 8.15 6.15 3.09 9.51 9.3 13.22 14.75 3.08 3.34 6.98 6.94 11.83 6.84 4.84.26 9.54-1.56 13.57-4.13 4.35-2.69 9.04-5.36 11.9-9.76 1.69-2.67 3.97-4.9 5.6-7.61 1.81-2.43 2.93-5.42 5.42-7.28.66 9.99-2.14 19.75-5.57 29.01-4.38 13.06-14.53 24.21-27.16 29.75-12.86 4.35-25.57 9.25-38.79 12.45-4.59 1.86-9.67 2.21-14.08 4.55-7.28 4.16-14.59 8.28-22.14 11.93-3.63-5.4-8.12-10.1-12.8-14.57-3.27-2.4-6.65-4.64-9.75-7.25-2.32-2.02-5.86-2.58-7.36-5.47 3.57-1.43 6.53-3.96 9.99-5.63 4.82-2.73 8.57-6.92 12.92-10.29 9.46 3.91 19.42 6.46 29.23 9.34 4.45.84 10.37 1.89 13.67-2.06 3.92-7.26 3.23-15.76 2.6-23.68-1.3-6.24-.46-12.65-1.43-18.92-.5-3.39.54-6.74.63-10.12z" style="fill:#49a2ea;fill-rule:nonzero" transform="translate(-134.235 -314.45)"/><path d="M695.82 475.17c2.1 3.33 4.06 7.53 8.24 8.57 3.4 1.26 6.92-.27 10.17-1.28 8.57 7.86 17.51 15.31 26.4 22.8-5.31 5.17-11.47 9.35-18.11 12.64-13.41 5.83-27.12 11.35-41.55 14.05-5.96.83-11.77 2.47-17.75 3.17l.4-2c-7.75-.61-15.58.27-23.25-1.32-10.08-.98-20.31-.99-30.25-3.09-12.53-3.94-25.51-6.71-37.44-12.35-4.47-2.02-8.6-6.47-13.9-5.21-2.84-2.43-5.64-4.91-8.26-7.57 2.52-2.91 5.09-5.78 7.6-8.7 7.62-2.91 15.86-2.7 23.88-3.25 4.22-.39 9.82 1.3 12.38-3.18 1.58 4.51 5.49 7.37 9.4 9.78 14.1 7.72 30.62 9.24 46.42 8.29 4.95-.28 10.09.07 14.78-1.85 3.83-2.11 7.72-4.13 11.72-5.91 5.06-2.18 9.1-6.04 13.96-8.58-1.52-3.36-2.42-7.2-1.3-10.83 2-1.61 4.3-2.79 6.46-4.18z" style="fill:#f5f5f4;fill-rule:nonzero" transform="translate(-134.235 -314.45)"/><path d="M290.35 486.41c2.89-3.79 8.18-4.98 12.47-2.91 3.31 2.57 6.5 6.03 6.63 10.47 1.08 4.76-2.84 9.05-6.96 10.79-5.64.51-10.75-2.77-14.19-6.97-1.18-3.87-.72-8.3 2.05-11.38z" style="fill:#443e3f;fill-rule:nonzero" transform="translate(-134.235 -314.45)"/><path d="M423.5 496.93c-1.69-7.97 6.41-15.48 14.2-14.33 2.29 1.58 4.85 2.89 6.63 5.1 1.53 3.29 3.08 7.37 1.05 10.81-2.37 5.02-8.39 9.25-14.02 6.98-4.03-1.02-6.46-4.93-7.86-8.56z" style="fill:#464040;fill-rule:nonzero" transform="translate(-134.235 -314.45)"/><path d="M573.57 487.37c5.78-1.21 11.71-1.42 17.6-1.29 1.16.65 2.2 1.47 3.21 2.37-2.56 4.48-8.16 2.79-12.38 3.18-8.02.55-16.26.34-23.88 3.25-1.81-.02-3.6-.15-5.38-.29 5.25-5.66 13.65-6.15 20.83-7.22z" style="fill:#cfd1d0;fill-rule:nonzero" transform="translate(-134.235 -314.45)"/><path d="M665.93 489.71c1.27 3.72.21 8.11-2.46 10.97-1.38-.8-2.74-1.57-4.1-2.36-4.8-3.32-10.59-5.1-16.42-5-2.29.05-3.82 2-5.57 3.19-2.73 2.27-6.5 1.88-9.79 1.67-.14-.58-.43-1.73-.57-2.31 4.96-1.85 9.91-3.78 15.02-5.18 7.85-1.75 15.06 2.62 22.23 5.01.62-1.98 1.24-3.96 1.66-5.99z" style="fill:#444042;fill-rule:nonzero" transform="translate(-134.235 -314.45)"/><path d="M357.4 507.53c4.6-3 10.36-2.3 15.55-1.99 4.69.52 7.43 4.74 8.92 8.8.22-.59.67-1.77.89-2.36-.9 5.05-2.8 9.74-5.57 14.06-2.48 1.07-4.94 2.21-7.38 3.37-.4-.15-1.21-.43-1.62-.57-2.71.95-5.45-.03-8.1-.68-2.18-1.52-4.77-2.67-6.3-4.93-2.15-2.91-1.25-6.71-1.63-10.06 1.47-2.1 2.89-4.41 5.24-5.64z" style="fill:#403e3f;fill-rule:nonzero" transform="translate(-134.235 -314.45)"/><path d="M558.78 511.15c5.3-1.26 9.43 3.19 13.9 5.21 11.93 5.64 24.91 8.41 37.44 12.35 9.94 2.1 20.17 2.11 30.25 3.09 7.67 1.59 15.5.71 23.25 1.32l-.4 2c-3.3.69-6.6 1.35-9.88 2.11-12.47.55-24.99-.16-37.31-2.08-7.5-1.11-14.74-3.32-22-5.43-8.99-3.16-18.26-6.1-26.08-11.7-3.04-2.32-6.35-4.28-9.17-6.87z" style="fill:#e4e5e6;fill-rule:nonzero" transform="translate(-134.235 -314.45)"/><path d="M680.97 531.95c14.43-2.7 28.14-8.22 41.55-14.05.04.82.11 2.46.15 3.28-2.63 3.79-7.43 4.66-11.47 6.17-3.84 1.47-7.77 2.7-11.76 3.72-8.92 2.66-17.77 5.86-27.16 6.23-6.32.06-12.64.39-18.94-.07 3.28-.76 6.58-1.42 9.88-2.11 5.98-.7 11.79-2.34 17.75-3.17z" style="fill:#898c91;fill-rule:nonzero" transform="translate(-134.235 -314.45)"/><path d="M157.61 522.36c1 .03 2 .07 3 .09 3.11 4.18 6.89 7.79 10.09 11.89 4.41 3.2 8.47 6.89 13.15 9.72.31.18.94.53 1.26.71-.37.4-1.1 1.22-1.47 1.62 1.12 3.27 1.81 7.04 4.76 9.23 9.26 7.85 20.55 12.73 31.82 16.95 6.08 1.96 12.41 2.95 18.75 3.62 1.32.04 1.84 1.51 2.75 2.26.85-.18 1.71-.36 2.57-.53.1-.89.21-1.76.33-2.63 2.28-.03 4.57.04 6.85.22-1.7 3.71-3.1 7.55-5.01 11.17-5.42-.45-9.99-3.85-15.32-4.77-23.62-3.21-45.36-16.26-60.69-34.32-5.28-7.83-10.32-16.05-12.84-25.23z" style="fill:#f0713a;fill-rule:nonzero" transform="translate(-134.235 -314.45)"/><path d="M160.61 522.45c1.77-.05 3.54-.18 5.31-.31 1.84 3.9 4.49 7.3 7.5 10.36 2.67 3.57 5.76 6.83 9.68 9.06-.01-.67-.04-2-.05-2.66.25 1.72.54 3.43.8 5.16-4.68-2.83-8.74-6.52-13.15-9.72-3.2-4.1-6.98-7.71-10.09-11.89z" style="fill:#ffb08b;fill-rule:nonzero" transform="translate(-134.235 -314.45)"/><path d="M616.03 535.15c12.32 1.92 24.84 2.63 37.31 2.08 6.3.46 12.62.13 18.94.07-.13.8-.38 2.41-.5 3.21-.88-.35-1.76-.69-2.63-1.03-.35 1.9-.69 3.82-1.02 5.73-1.05.59-2.09 1.19-3.15 1.76-16.82 1.3-33.78.8-50.54-1.05 1.21-.74 2.72-1.22 3.61-2.4.87-2.94-.74-5.83-2.02-8.37z" style="fill:#4a4444;fill-rule:nonzero" transform="translate(-134.235 -314.45)"/><path d="M709.4 542.56c2.42-.7 5.1-1.87 7.54-.58 9.04 4.19 17.81 9.22 25.14 16.05 7.72 6.18 12.21 15.53 14.57 24.95-.51 2.76-2.12 5.63-4.97 6.45-3.21.87-6.45-.45-9.17-2.07-10.93-7.07-21.27-15.28-33.28-20.52-4.32-1.86-7.8-5.1-11.6-7.78 1.01-4.49.2-9.03-.38-13.51 4.02-1.14 8.16-1.76 12.15-2.99z" style="fill:#48a3eb;fill-rule:nonzero" transform="translate(-134.235 -314.45)"/><path d="M583.16 545.22c3.26-1.72 6.82-3.49 10.61-2.52-.04 7.28-1.43 14.48-1.29 21.77-2.93 1.05-5.9 1.97-8.88 2.83-3.31.86-6.13 2.96-9.49 3.65-7.2 5.83-15.43 10.63-20.82 18.4-6.31.01-12.61.41-18.92.25 2.05-6.43 4.76-12.81 9.29-17.9 3.02-6.07 8.76-10.06 14.31-13.63 5.2-4.42 11.56-7.06 17.45-10.38 2.49-1.11 5.34-1.13 7.74-2.47z" style="fill:#49a2e9;fill-rule:nonzero" transform="translate(-134.235 -314.45)"/><path d="M185.11 544.77c11.8 6.38 24.89 9.59 37.57 13.71 6.19 1.78 12.66 2.36 18.86 4.1 5.02 1.43 10.27 1.28 15.44 1.49-2.07 3.66-3.39 7.66-5.13 11.47l-.38-.03c-2.28-.18-4.57-.25-6.85-.22-.12.87-.23 1.74-.33 2.63-.86.17-1.72.35-2.57.53-.91-.75-1.43-2.22-2.75-2.26-6.34-.67-12.67-1.66-18.75-3.62-11.27-4.22-22.56-9.1-31.82-16.95-2.95-2.19-3.64-5.96-4.76-9.23.37-.4 1.1-1.22 1.47-1.62z" style="fill:#e57444;fill-rule:nonzero" transform="translate(-134.235 -314.45)"/><path d="M609.25 545.42c1.72.15 3.45.32 5.19.5 16.76 1.85 33.72 2.35 50.54 1.05 6.21-.45 12.45-.65 18.69-.67-.08 4.78.38 9.6-.3 14.36-.23-.29-.69-.87-.91-1.17-5.42-.14-10.84-.93-16.25-.29-7.7.8-15.46.35-23.18.42-8.69.14-17.35-1.82-26.02-.7-3.19.36-5.35 2.92-7.24 5.25 0-6.26-.67-12.49-.52-18.75z" style="fill:#d5d4d4;fill-rule:nonzero" transform="translate(-134.235 -314.45)"/><path d="M420.33 551.3c11.79.64 23.18 4.95 32.99 11.43 9.6 8.62 19.64 18.49 22.13 31.7-3.84-.28-7.66-.91-11.51-.76-3.36-.11-7.02.4-10.02-1.43-.65-.93-1.41-1.74-2.31-2.41l.08 3.15c-.71-.15-2.14-.43-2.85-.57-2.02-5.23-3.61-10.75-7.03-15.28-5.03-7.05-12.68-12.43-21.46-13.26.01-4.2-.07-8.39-.02-12.57z" style="fill:#ff7c3f;fill-rule:nonzero" transform="translate(-134.235 -314.45)"/><path d="M280.13 561.28c9.73-6.9 21.88-8.94 33.52-10-1.37 4.64-1.37 9.51-2.04 14.27-2.83.27-6.13-.36-8.49 1.59-6.6 6.92-12.18 14.78-16.71 23.21-.67 1.12-1.42 2.2-2.16 3.3-3.63-.2-7.25-.3-10.88-.36.19-1.85 1.38-3.19 2.62-4.44-3.92 2.75-8.78 5.18-13.65 3.54 3.32-8.44 7.33-16.84 13.56-23.54 1.29-2.58 1.64-5.83 4.23-7.57z" style="fill:#fc773c;fill-rule:nonzero" transform="translate(-134.235 -314.45)"/><path d="M325.81 555.16c1.7.1 3.4.22 5.1.43-.69.16-2.05.48-2.74.64 1.25 10.3 7.15 20.08 16.09 25.52 12.91 8.7 30.1 7.74 43.7 1.12.78.71 1.58 1.41 2.38 2.12-.45 1.35-.89 2.72-1.38 4.07-6.29 3.75-13.66 5.14-20.85 6.13-4.68-.91-9.57.04-14.17-1.4-6.19-1.17-11.32-4.95-16.61-8.11-3.33-2.62-6.61-5.42-9.34-8.68-4.15-6.45-3.87-14.65-2.18-21.84z" style="fill:#d9dada;fill-rule:nonzero" transform="translate(-134.235 -314.45)"/><path d="M396.9 556.39c3.12-.83 6.62-.34 9.39-2.25-.61 3.44-.93 6.94-1.15 10.44-3.9 7.57-9.63 14.19-17.18 18.29-13.6 6.62-30.79 7.58-43.7-1.12-8.94-5.44-14.84-15.22-16.09-25.52.69-.16 2.05-.48 2.74-.64 14.76 2.59 29.95 3.29 44.98 2.96 1.68-.02 3.37-.26 5-.74 5.34-.34 10.77-.16 16.01-1.42z" style="fill:#fbfbfa;fill-rule:nonzero" transform="translate(-134.235 -314.45)"/><path d="M406.29 554.14c.72.89 2 1.61 2.07 2.9.25 5.11.05 10.33-1.91 15.13-.36-2.55-.91-5.06-1.31-7.59.22-3.5.54-7 1.15-10.44z" style="fill:#acacae;fill-rule:nonzero" transform="translate(-134.235 -314.45)"/><path d="M609.77 564.17c1.89-2.33 4.05-4.89 7.24-5.25 8.67-1.12 17.33.84 26.02.7 7.72-.07 15.48.38 23.18-.42 5.41-.64 10.83.15 16.25.29.22.3.68.88.91 1.17-1.47 4.44-.87 9.74-4.25 13.39-4.88 5.59-11.78 8.79-18.35 11.93-3.7 1.83-7.87 2.09-11.78 3.2-12.46-.38-24.71-4.85-34.36-12.74-3.65-3-4.69-7.78-4.86-12.27z" style="fill:#fafafa;fill-rule:nonzero" transform="translate(-134.235 -314.45)"/><path d="M387.96 582.87c7.55-4.1 13.28-10.72 17.18-18.29.4 2.53.95 5.04 1.31 7.59-1.93 5.2-6.08 9.29-10.16 12.92-2.42 1.38-4.77 2.87-7.33 3.97.49-1.35.93-2.72 1.38-4.07-.8-.71-1.6-1.41-2.38-2.12z" style="fill:#c7c7c5;fill-rule:nonzero" transform="translate(-134.235 -314.45)"/><path d="M303.12 567.14c2.36-1.95 5.66-1.32 8.49-1.59 1.83 3.91-3.65 4.32-5.59 6.51-5.03 6.02-9.41 12.56-14.09 18.85-1.84-.18-3.68-.36-5.52-.56 4.53-8.43 10.11-16.29 16.71-23.21z" style="fill:#39404a;fill-rule:nonzero" transform="translate(-134.235 -314.45)"/><path d="M195.04 602.25c3.08-1.51 6.65-.47 9.94-.78 3.17-.29 6.22.64 9.3 1.2 4.89 1.94 10.1 2.95 15.01 4.84 6.45 3.52 9.97 10.21 11.71 17.1.94 3.7.42 7.59.4 11.38-.44.96-.87 1.92-1.29 2.9-2.27 5.59-3.65 11.76-7.8 16.37-6.97 8.69-17.73 13.1-28.19 15.94-6.46 2.19-13.37 1.36-20.05 1.41-13.4-.82-27.37-5.05-36.87-14.96-5.11-6.11-6.43-14.1-7.4-21.75.32-6.5 3.41-12.54 7.84-17.17 12.41-7.74 26.67-11.64 40.6-15.64 2.19-.75 4.51-.78 6.8-.84m13.11 3.09c-.36.39-1.08 1.18-1.44 1.57 3.56 1.05 7.17 3.43 11 2.34-2.89-1.93-6.25-2.98-9.56-3.91m-25.34 9.32c2.43.21 4.87.27 7.32.22-.66-3.34-5.71-2.51-7.32-.22m19.08 2.25c-3.19 3.3-9.56 3.59-9.77 9.23-1.02.7-2.04 1.39-3.08 2.07-5.51 4.24-12.88 1.2-19.08 3.45.4-.81 1.01-1.41 1.82-1.79 3.94-2.18 7.77-4.65 12.24-5.59-2.85.44-5.64 1.14-8.47 1.68-2.58.6-5.03-1.06-7.65-.49-.37 1.4-.69 2.84-1.25 4.2-3.52 1.08-7.26 1.75-10.24 4.09-1.11-.48-1.99 2.1-.38 1.92 6.26 1.66 12.69 2.62 18.98 4.18 5.53 1.38 11.22 2.15 16.93 1.83 5.3-.42 11.08.94 15.9-1.9 2.4-1.29 4.73-2.84 6.41-5.02 2.54-.89 3.42-3.84 4.48-6.06 1.57-3.46-.16-7.15-1.56-10.34-1.06-2.38-3.16-3.67-5.77-3.77-3.23.2-6.95-.06-9.51 2.31M163.9 643.8c-.49 1.04-.98 2.09-1.47 3.15 2.08 5.66 6.71 12.09 13.55 11.03 8.89 1.84 18.2 2.63 27.07.19 2.38-4.73 1.15-10.5 2.42-15.61-7.17-.28-14.27 1.42-21.45.9-6.67-1.1-13.43-.1-20.12.34z" style="fill:#433e3d;fill-rule:nonzero" transform="translate(-134.235 -314.45)"/><path d="M246.15 601.38c.93-.45 3.28.08 2.54 1.49-1.06 1.6-5.13-.31-2.54-1.49z" style="fill:#726a64;fill-rule:nonzero" transform="translate(-134.235 -314.45)"/><path d="M208.15 605.34c3.31.93 6.67 1.98 9.56 3.91-3.83 1.09-7.44-1.29-11-2.34.36-.39 1.08-1.18 1.44-1.57z" style="fill:#5d5a5b;fill-rule:nonzero" transform="translate(-134.235 -314.45)"/><path d="M499.28 608.31c4.01.15 8.02-.01 11.99-.56.04 1.29.09 2.59.15 3.9-3.67-.01-7.33-.01-11-.03l.16 3.65c-.12-1.04-.26-2.06-.4-3.08-.67-1.19-.71-2.58-.9-3.88z" style="fill:#fdfffe;fill-rule:nonzero" transform="translate(-134.235 -314.45)"/><path d="M535.49 608.37c20.73-.16 41.46-.03 62.18-.1l-.02.29c-.05.79-.15 2.37-.21 3.16-1.97-1.96-4.54-2.81-7.31-2.52.81 2.26 1.81 4.48 2.42 6.83-.39 2.07-1.3 3.99-2.01 5.96-4.44.96-8.19-1.75-11.74-3.96.38-.88.78-1.74 1.2-2.59.73.03 2.2.07 2.94.09 1.88-1.8 3.96-3.38 6.13-4.82-1.62-.65-3.21-1.56-5-1.5-5.02-.17-10.05-.29-15.06.09.91 1.56 1.84 3.15 2.67 4.76-.5.22-1.49.66-1.99.88-.22-1.87.34-4.1-1.18-5.55-1.79-.56-3.68-.65-5.52-.77-3.99-.13-7.98-.04-11.96.27-2.22.18-4.43.38-6.63.58.02.94.05 1.88.08 2.83.94.6 1.89 1.21 2.85 1.83-.58.93-1.12 1.89-1.64 2.86-2.23 4.57-5.02 9.11-5.29 14.33-.29 5.34.49 10.66.51 16-3.91-.9-7.81-1.88-11.58-3.29.02-5.01.02-10.02-.02-15.03-.34-7.41 4.12-13.77 6.18-20.63z" style="fill:#9fa0a0;fill-rule:nonzero" transform="translate(-134.235 -314.45)"/><path d="M654.51 608.3c5.84-.03 11.69-.06 17.54-.01.75 7.46-.27 15.18 2.35 22.37 1.34 4.92 3.97 10.21 9.34 11.6-2.29 1.56-4.67 2.98-7.04 4.41 7.9 2.19 16.17 1.65 24.28 1.69 4.87.21 8.49-4.03 13.31-4.03 4.23-.26 8.48-.06 12.7.33.26 1.78.58 3.57.9 5.36 1.78.27 3.56.57 5.36.83-17.76 1.17-35.56-.3-53.33.35-15.28-.9-30.56.08-45.85.08-15.27.06-30.56.29-45.8-.81-.45-.31-1.37-.92-1.82-1.23.63-1.78 1.66-3.36 2.84-4.82.12.66.34 1.97.45 2.62 1.89.29 3.75.75 5.54 1.48 1.76-.39 3.5-.86 5.24-1.35.11-2.9.25-5.87-.95-8.57-.63 1.49-1.21 3.02-1.76 4.55-.39-2.87-1.37-5.58-2.02-8.37-.3-2.44-.4-4.91-1.2-7.26.88-.36 1.76-.72 2.66-1.06 1.26-2.31 2.54-4.62 3.75-6.95.57.86 1.14 1.73 1.72 2.6-2.01 1.99-3.79 4.2-5.09 6.72 1.15 2.77 2.04 5.64 2.89 8.52.3-.77.9-2.32 1.19-3.09 1.03.41 2.06.82 3.09 1.25 1.02-.32 2.04-.63 3.07-.92.66.3 1.33.62 2.01.94.68-1.18 1.36-2.36 2.08-3.51-.56 2.43-.91 5.16-2.81 6.97-2.71.69-6.59.03-7.94 3.14.66 2.6 1.02 6.89 4.28 7.28-.16-2.31.24-4.57 2.55-5.62-.11 1.81-.23 3.62-.35 5.43 1.7-.98 3.39-1.99 5.06-3.03-.04 1.17-.09 2.35-.14 3.54l-.12.14c7.42-1.08 14.85.6 22.26-.17.57-.16 1.7-.5 2.27-.67 5.91 1.34 12 1.09 18.01.82 1.55 0 2.9-.83 4.18-1.62 1.6-2.59 3.87-5.35 3.24-8.59-.84-5.94-2.42-11.8-5-17.23-1.65-3.31-1.83-7.03-2.38-10.61l-.56-3.5z" style="fill:#aeaeaf;fill-rule:nonzero" transform="translate(-134.235 -314.45)"/><path d="M672.05 608.29c15.35.14 30.7-.11 46.04.17.7 5.63 1.67 11.27 1.31 16.97-4.06-1.8-8.06-4.03-12.52-4.64-1.52-.25-3.52.79-3.47 2.52-.19 4.27 1.6 8.37 1.4 12.66-.72 1.19-2.03 1.88-2.99 2.86-2.54 2.14-4.06 5.33-6.91 7.12-1.57 1.04-3.78.45-4.79-1.08-1.43-2.13-4.15-2.04-6.38-2.61-5.37-1.39-8-6.68-9.34-11.6-2.62-7.19-1.6-14.91-2.35-22.37z" style="fill:#e1e1e1;fill-rule:nonzero" transform="translate(-134.235 -314.45)"/><path d="M456.48 609.27c4.29-.1 9.4-1.96 13.12.9-11.82 1.44-23.74 1.41-35.62 1.36-4.66.21-9.26 1.24-13.95 1.06-11.29-.27-22.6 1.74-33.86.67.85-1.36 2.19-2.23 3.82-2.25 8.97-.9 18.07.25 26.99-1.28 13.16-.52 26.35.09 39.5-.46z" style="fill:#6a6464;fill-rule:nonzero" transform="translate(-134.235 -314.45)"/><path d="M544.4 609.47c2.2-.2 4.41-.4 6.63-.58-1.27 1.72-2.54 3.43-3.7 5.24-.96-.62-1.91-1.23-2.85-1.83-.03-.95-.06-1.89-.08-2.83z" style="fill:#b6b6b4;fill-rule:nonzero" transform="translate(-134.235 -314.45)"/><path d="M551.03 608.89c3.98-.31 7.97-.4 11.96-.27.68 2.59 2.62 5.58.7 8.11-1.51 2.71-4.95 1.22-6.84-.24l-.27 4.07c1.85-.91 3.87-1.35 5.94-1.15.1 1.37.21 2.75.33 4.13-2.11 1.31-3.97 3.01-4.91 5.36-.25-.33-.75-.99-1-1.31-.83 1.4-1.64 2.82-2.44 4.25-3.59-3.2-6.71-6.91-10.58-9.79 3.14-.44 6.32-.71 9.51-.62-.07 1.77-.15 3.55-.2 5.33.86-.33 1.74-.66 2.62-.98-.06-1.71-.1-3.41-.15-5.11-3.29-1.37-6.42-3.25-10.01-3.68.52-.97 1.06-1.93 1.64-2.86 1.16-1.81 2.43-3.52 3.7-5.24z" style="fill:#d7d6d6;fill-rule:nonzero" transform="translate(-134.235 -314.45)"/><path d="M562.99 608.62c1.84.12 3.73.21 5.52.77 1.52 1.45.96 3.68 1.18 5.55.5-.22 1.49-.66 1.99-.88-.83-1.61-1.76-3.2-2.67-4.76 5.01-.38 10.04-.26 15.06-.09 1.79-.06 3.38.85 5 1.5-2.17 1.44-4.25 3.02-6.13 4.82-.74-.02-2.21-.06-2.94-.09-.42.85-.82 1.71-1.2 2.59-.13.54-.39 1.6-.52 2.14-1.61.49-3.2 1.08-4.6 2.02l3.87.68c-.8 5.17-4.47 9.13-7.66 13.02-2.04 2.26-4.39 5.52-7.9 4.44-1.57-1.17-1.62-3.3-2.23-4.97-1.15-.75-2.29-1.49-3.42-2.21.53-1.42 1.07-2.84 1.6-4.25.94-2.35 2.8-4.05 4.91-5.36-.12-1.38-.23-2.76-.33-4.13-2.07-.2-4.09.24-5.94 1.15l.27-4.07c1.89 1.46 5.33 2.95 6.84.24 1.92-2.53-.02-5.52-.7-8.11m12.16 3.83c-1.55 1.33.93 3.6 2.22 2.11 1.42-1.36-.92-3.45-2.22-2.11m-9.25 14.54c-.27 1.35.58 4.8 2.44 3.3.08-1.37-.06-2.74.04-4.09.46-1.66 1.63-3.24.91-5.01-1.83 1.41-3.65 3.28-3.39 5.8z" style="fill:#ebeceb;fill-rule:nonzero" transform="translate(-134.235 -314.45)"/><path d="M597.65 608.56c4.9-.34 9.82-.2 14.74-.19-.53 1.22-1.1 2.41-1.71 3.59-1.53.54-3.22-.01-4.79.03-1.01.42-1.76 1.11-2.25 2.06-.91 1.8-1.73 3.65-2.64 5.46-1.21 2.33-2.49 4.64-3.75 6.95-1.34-.45-2.66-.87-3.98-1.3-.92-1.07-1.82-2.13-2.73-3.17.71-1.97 1.62-3.89 2.01-5.96-.61-2.35-1.61-4.57-2.42-6.83 2.77-.29 5.34.56 7.31 2.52.06-.79.16-2.37.21-3.16z" style="fill:#e4e4e3;fill-rule:nonzero" transform="translate(-134.235 -314.45)"/><path d="M612.39 608.37c1.97-.04 3.95-.05 5.94-.05-.94 3.5-1.67 7.18-.1 10.63-1.94 1.57-3.87 3.17-5.73 4.84 1.23 3.42.94 7.08.77 10.65.39 2.5 1.92 4.57 3.26 6.66-.67.72-1.34 1.45-1.99 2.2 1.57 2.38.11 4.95-1.93 6.43.05-1.19.1-2.37.14-3.54-1.67 1.04-3.36 2.05-5.06 3.03.12-1.81.24-3.62.35-5.43-2.31 1.05-2.71 3.31-2.55 5.62-3.26-.39-3.62-4.68-4.28-7.28 1.35-3.11 5.23-2.45 7.94-3.14 1.9-1.81 2.25-4.54 2.81-6.97-.72 1.15-1.4 2.33-2.08 3.51-.68-.32-1.35-.64-2.01-.94-1.03.29-2.05.6-3.07.92-1.03-.43-2.06-.84-3.09-1.25-.29.77-.89 2.32-1.19 3.09-.85-2.88-1.74-5.75-2.89-8.52 1.3-2.52 3.08-4.73 5.09-6.72-.58-.87-1.15-1.74-1.72-2.6.91-1.81 1.73-3.66 2.64-5.46-.35 1.78.82 2.88 2.3 3.63.02-1.91 0-3.8-.05-5.69 1.57-.04 3.26.51 4.79-.03.61-1.18 1.18-2.37 1.71-3.59m.28 6.66c-1.89-.2-3.77-.42-5.64-.66-.51 3.05 1.5 5.23 3.53 7.2.93-.42 1.86-.83 2.81-1.23.62-3.47 1.23-6.96 1.22-10.5-2.05.81-1.4 3.47-1.92 5.19z" style="fill:#d8d9d9;fill-rule:nonzero" transform="translate(-134.235 -314.45)"/><path d="M618.33 608.32c3.32-.01 6.65 0 9.97-.02-1.54 5.25-2.94 10.56-3.76 15.98-.63 4.22-2.82 7.98-3.92 12.08 4.66-2.53 5.8-8.09 8.12-12.43.14.57.42 1.71.56 2.27-.98 3.23-2.42 6.36-2.55 9.78-.13 5.82-4.38 10.82-9.68 12.87.13-.41.39-1.21.51-1.61 2.11-1.68 3.14-4.22 4.32-6.55-1.35-1.79-3.26-2.93-5.29-3.77.39-1.84.8-3.68 1.22-5.5-1.52 1-3.05 2-4.56 3.02.17-3.57.46-7.23-.77-10.65 1.86-1.67 3.79-3.27 5.73-4.84-1.57-3.45-.84-7.13.1-10.63z" style="fill:#e4e5e4;fill-rule:nonzero" transform="translate(-134.235 -314.45)"/><path d="M628.3 608.3c1.46-.02 2.92-.03 4.39-.04.06.69.2 2.08.26 2.77.13-.97.27-1.94.41-2.89.51.07 1.53.21 2.03.28 3.16 3.51 1.55 8.01 1.72 12.16.54 2.33.81 4.72.65 7.12-.03 5.32 3.59 9.63 7.18 13.17a78.206 78.206 0 0 1-4.16 5.44c-.81-.21-1.62-.4-2.41-.59-.46 1.1-.91 2.2-1.35 3.31-.57.17-1.7.51-2.27.67.29-1.89.79-3.77.71-5.69-.51-3.09-2.75-5.99-1.83-9.21.36-1.75 2.01-2.73 3.15-3.94-.62-4.52-.45-9.11-1.1-13.61-1.11-1.65-3.44-2.18-5.31-1.86-2.54.49-3.4 3.18-4.58 5.12 1.42-.5 2.84-1.01 4.27-1.51-.01 2.41-.03 4.87-.76 7.2-.14-.56-.42-1.7-.56-2.27-2.32 4.34-3.46 9.9-8.12 12.43 1.1-4.1 3.29-7.86 3.92-12.08.82-5.42 2.22-10.73 3.76-15.98z" style="fill:#c9c9c9;fill-rule:nonzero" transform="translate(-134.235 -314.45)"/><path d="M635.39 608.42c6.37-.23 12.75-.07 19.12-.12l.56 3.5c-.04 2.31-.22 4.62-.39 6.93-.34 2.38-.84 4.73-1.31 7.1-.87-.59-1.73-1.16-2.58-1.73-3.22 1.14-6.63 1.67-10.04 1.25-1.2-1.61-2.42-3.2-3.64-4.77-.17-4.15 1.44-8.65-1.72-12.16z" style="fill:#e5e4e4;fill-rule:nonzero" transform="translate(-134.235 -314.45)"/><path d="M718.09 608.46c1.8.17 3.56.61 5.25 1.31.81 2.82 2.06 5.49 2.79 8.34-.38-.24-1.13-.73-1.51-.97-1.06 3.27-1.84 6.76-.88 10.17 1.45 5.7 2.59 11.49 3.25 17.35-4.22-.39-8.47-.59-12.7-.33-4.82 0-8.44 4.24-13.31 4.03-8.11-.04-16.38.5-24.28-1.69 2.37-1.43 4.75-2.85 7.04-4.41 2.23.57 4.95.48 6.38 2.61 1.01 1.53 3.22 2.12 4.79 1.08 2.85-1.79 4.37-4.98 6.91-7.12.96-.98 2.27-1.67 2.99-2.86.2-4.29-1.59-8.39-1.4-12.66-.05-1.73 1.95-2.77 3.47-2.52 4.46.61 8.46 2.84 12.52 4.64.36-5.7-.61-11.34-1.31-16.97z" style="fill:#bebcbc;fill-rule:nonzero" transform="translate(-134.235 -314.45)"/><path d="M612.67 615.03c.52-1.72-.13-4.38 1.92-5.19.01 3.54-.6 7.03-1.22 10.5-.95.4-1.88.81-2.81 1.23-2.03-1.97-4.04-4.15-3.53-7.2 1.87.24 3.75.46 5.64.66z" style="fill:#e3e2e2;fill-rule:nonzero" transform="translate(-134.235 -314.45)"/><path d="M290.93 614.7c-.01-1.51-.26-4.24 2.04-4 8.99-.13 18.02-.29 27.01.1 12.27 1.62 24.65.72 36.98.88 4.27.27 8.53-.49 12.78-.44 3.12 2.56 6.31 5.04 10.24 6.34-4.14.51-7.74-1.78-11.48-2.98-19.13 1.28-38.31.64-57.48.6-6.7-.39-13.41.12-20.09-.5z" style="fill:#585454;fill-rule:nonzero" transform="translate(-134.235 -314.45)"/><path d="M815.39 618.43c3.12-2.57 5.74-7.4 10.28-7.06 3.73 2.18 6.79 5.35 10.37 7.78-1.66 3.6-3.85 7.03-4.73 10.94-.95 3.85 2.33 6.8 3.22 10.32-.53-.04-1.57-.12-2.1-.15-1.32-3.42-3.21-6.83-2.93-10.6-.1-2.45.77-5.92-2.15-7.06-2.45-1.7-4.65.9-6.12 2.64-2.76 2.93.38 8.29-3.44 10.49-2.92 1.87-3.94 5.3-5.47 8.22-5.16-2.33-10.4-4.46-15.53-6.89 5.69-6.69 11.69-13.19 18.6-18.63z" style="fill:#c5c6c7;fill-rule:nonzero" transform="translate(-134.235 -314.45)"/><path d="M500.42 611.62c3.67.02 7.33.02 11 .03-.26 2.04-.58 4.08-.92 6.12-3.28-.93-7.06-.42-9.92-2.5l-.16-3.65z" style="fill:#a39f9d;fill-rule:nonzero" transform="translate(-134.235 -314.45)"/><path d="M575.15 612.45c1.3-1.34 3.64.75 2.22 2.11-1.29 1.49-3.77-.78-2.22-2.11z" style="fill:#cdcecc;fill-rule:nonzero" transform="translate(-134.235 -314.45)"/><path d="M603.64 614.05c.49-.95 1.24-1.64 2.25-2.06.05 1.89.07 3.78.05 5.69-1.48-.75-2.65-1.85-2.3-3.63z" style="fill:#bdbdbb;fill-rule:nonzero" transform="translate(-134.235 -314.45)"/><path d="M655.07 611.8c.55 3.58.73 7.3 2.38 10.61 2.58 5.43 4.16 11.29 5 17.23.63 3.24-1.64 6-3.24 8.59-1.22.03-2.4.09-3.6.15-.72-.95-1.38-1.92-2.21-2.74-1.66-.11-3.31.08-4.95.11l-.39-.49c.79-.99 1.6-1.95 2.41-2.93-.36-.36-1.09-1.1-1.46-1.47 2.88-.92 7.24-1.59 7.4-5.41-.18-5.6-1.9-11.08-1.73-16.72.17-2.31.35-4.62.39-6.93z" style="fill:#c8c7c7;fill-rule:nonzero" transform="translate(-134.235 -314.45)"/><path d="M182.81 614.66c1.61-2.29 6.66-3.12 7.32.22-2.45.05-4.89-.01-7.32-.22z" style="fill:#565554;fill-rule:nonzero" transform="translate(-134.235 -314.45)"/><path d="M201.89 616.91c2.56-2.37 6.28-2.11 9.51-2.31.59 1.77 1.22 3.53 1.89 5.28 1.29-.51 2.59-1 3.88-1.51 1.4 3.19 3.13 6.88 1.56 10.34-1.06 2.22-1.94 5.17-4.48 6.06-3.63.88-7.27 1.71-10.89 2.62-.42-.33-1.26-.97-1.68-1.29 2.11-.81 4.42-1.78 5.61-3.82.4-1.63.45-3.32.64-4.97 1.57-1.12 3.65-1.87 4.54-3.69.53-1.88.18-4.37-1.87-5.15-3.25-.69-6.77.7-8.81 3.29-1.98 2.35-3.22 5.37-5.76 7.22-5.33 3.39-11.69 4.35-17.66 6.04-3.34.84-6.82 1.16-10.24.68-3.92-.53-8.04-.29-11.72-1.94 2.98-2.34 6.72-3.01 10.24-4.09.56-1.36.88-2.8 1.25-4.2 2.62-.57 5.07 1.09 7.65.49 2.83-.54 5.62-1.24 8.47-1.68-4.47.94-8.3 3.41-12.24 5.59-.81.38-1.42.98-1.82 1.79 6.2-2.25 13.57.79 19.08-3.45 1.04-.68 2.06-1.37 3.08-2.07.21-5.64 6.58-5.93 9.77-9.23z" style="fill:#838789;fill-rule:nonzero" transform="translate(-134.235 -314.45)"/><path d="M211.4 614.6c2.61.1 4.71 1.39 5.77 3.77-1.29.51-2.59 1-3.88 1.51-.67-1.75-1.3-3.51-1.89-5.28z" style="fill:#6a6e6e;fill-rule:nonzero" transform="translate(-134.235 -314.45)"/><path d="M630.37 615.39c1.87-.32 4.2.21 5.31 1.86.65 4.5.48 9.09 1.1 13.61-1.14 1.21-2.79 2.19-3.15 3.94-.92 3.22 1.32 6.12 1.83 9.21.08 1.92-.42 3.8-.71 5.69-7.41.77-14.84-.91-22.26.17l.12-.14c2.04-1.48 3.5-4.05 1.93-6.43.65-.75 1.32-1.48 1.99-2.2-1.34-2.09-2.87-4.16-3.26-6.66 1.51-1.02 3.04-2.02 4.56-3.02-.42 1.82-.83 3.66-1.22 5.5 2.03.84 3.94 1.98 5.29 3.77-1.18 2.33-2.21 4.87-4.32 6.55-.12.4-.38 1.2-.51 1.61 5.3-2.05 9.55-7.05 9.68-12.87.13-3.42 1.57-6.55 2.55-9.78.73-2.33.75-4.79.76-7.2-1.43.5-2.85 1.01-4.27 1.51 1.18-1.94 2.04-4.63 4.58-5.12z" style="fill:#b6b5b7;fill-rule:nonzero" transform="translate(-134.235 -314.45)"/><path d="M540.4 631.32c.27-5.22 3.06-9.76 5.29-14.33 3.59.43 6.72 2.31 10.01 3.68.05 1.7.09 3.4.15 5.11-.88.32-1.76.65-2.62.98.05-1.78.13-3.56.2-5.33-3.19-.09-6.37.18-9.51.62 3.87 2.88 6.99 6.59 10.58 9.79.8-1.43 1.61-2.85 2.44-4.25.25.32.75.98 1 1.31-.53 1.41-1.07 2.83-1.6 4.25 1.13.72 2.27 1.46 3.42 2.21.61 1.67.66 3.8 2.23 4.97 3.51 1.08 5.86-2.18 7.9-4.44 3.19-3.89 6.86-7.85 7.66-13.02l-3.87-.68c1.4-.94 2.99-1.53 4.6-2.02-.19 2.16-.27 4.33-.25 6.5.36.04 1.09.13 1.45.17-.05.78-.1 1.57-.14 2.38.57.43 1.7 1.29 2.27 1.72-.93 3.49-1.34 7.08-1.14 10.7-3.48-.25-7.2-.3-9.84 2.38 2.78 2.21 5.71 4.24 8.6 6.32-2.22 1.22-4.82.75-7.22.84-5.68-.11-11.36.56-17.02.1-4.92-.39-9.4-2.61-14.08-3.96-.02-5.34-.8-10.66-.51-16z" style="fill:#bcbcbd;fill-rule:nonzero" transform="translate(-134.235 -314.45)"/><path d="M723.74 627.31c-.96-3.41-.18-6.9.88-10.17.38.24 1.13.73 1.51.97 5.07 10.39 6.92 21.86 9.45 33.03-.59-.08-1.75-.22-2.33-.29-1.8-.26-3.58-.56-5.36-.83-.32-1.79-.64-3.58-.9-5.36-.66-5.86-1.8-11.65-3.25-17.35z" style="fill:#d8dadc;fill-rule:nonzero" transform="translate(-134.235 -314.45)"/><path d="M201.79 621.76c2.04-2.59 5.56-3.98 8.81-3.29 2.05.78 2.4 3.27 1.87 5.15-.89 1.82-2.97 2.57-4.54 3.69-.19 1.65-.24 3.34-.64 4.97-1.19 2.04-3.5 3.01-5.61 3.82-6.24.48-12.48 1.75-18.75 1.02-1.74-.11-3.13-1.25-4.56-2.1 5.97-1.69 12.33-2.65 17.66-6.04 2.54-1.85 3.78-4.87 5.76-7.22z" style="fill:#443f3e;fill-rule:nonzero" transform="translate(-134.235 -314.45)"/><path d="M578.8 618.03c3.55 2.21 7.3 4.92 11.74 3.96.91 1.04 1.81 2.1 2.73 3.17-1.1.36-2.19.73-3.28 1.1.02 3.31 0 6.64-.72 9.89-.08-.6-.25-1.82-.34-2.42-.9 1.8-1.78 3.62-2.55 5.49-.03-3.71.44-7.38.63-11.06-.54-1-1.13-1.95-1.76-2.87-1.92.55-3.82 1.12-5.77 1.55-.36-.04-1.09-.13-1.45-.17-.02-2.17.06-4.34.25-6.5.13-.54.39-1.6.52-2.14z" style="fill:#949394;fill-rule:nonzero" transform="translate(-134.235 -314.45)"/><path d="M653.37 625.83c.47-2.37.97-4.72 1.31-7.1-.17 5.64 1.55 11.12 1.73 16.72-.16 3.82-4.52 4.49-7.4 5.41.37.37 1.1 1.11 1.46 1.47-.81.98-1.62 1.94-2.41 2.93-1.05-1.46-2.04-2.97-3.12-4.39-3.59-3.54-7.21-7.85-7.18-13.17.16-2.4-.11-4.79-.65-7.12 1.22 1.57 2.44 3.16 3.64 4.77 3.41.42 6.82-.11 10.04-1.25.85.57 1.71 1.14 2.58 1.73z" style="fill:#dcdddc;fill-rule:nonzero" transform="translate(-134.235 -314.45)"/><path d="M831.31 630.09c.88-3.91 3.07-7.34 4.73-10.94 4.22 3.88 8.86 7.31 13.01 11.25 1.27 2.11 2.7 4.12 4.31 6-4.82.88-9.86 1.1-14.33 3.28-.02-1.3-.03-2.6-.04-3.89-2.43.5-4.05 2.14-4.45 4.62h-.01c-.89-3.52-4.17-6.47-3.22-10.32z" style="fill:#d8d9da;fill-rule:nonzero" transform="translate(-134.235 -314.45)"/><path d="M565.9 626.99c-.26-2.52 1.56-4.39 3.39-5.8.72 1.77-.45 3.35-.91 5.01-.1 1.35.04 2.72-.04 4.09-1.86 1.5-2.71-1.95-2.44-3.3z" style="fill:#cfd0cf;fill-rule:nonzero" transform="translate(-134.235 -314.45)"/><path d="M821.23 625.24c1.47-1.74 3.67-4.34 6.12-2.64 2.92 1.14 2.05 4.61 2.15 7.06-.28 3.77 1.61 7.18 2.93 10.6.53.03 1.57.11 2.1.15h.01c1.53.19 3.08-.06 4.49-.73 4.47-2.18 9.51-2.4 14.33-3.28a44.413 44.413 0 0 1-4.31-6c3.3 2.22 5.88 5.28 8.76 8-9.46 3.83-19.38 6.3-29.07 9.45-5.86 2.42-10.91-2.74-16.42-3.9 1.53-2.92 2.55-6.35 5.47-8.22 3.82-2.2.68-7.56 3.44-10.49z" style="fill:#b4b4b3;fill-rule:nonzero" transform="translate(-134.235 -314.45)"/><path d="M593.27 625.16c1.32.43 2.64.85 3.98 1.3-.9.34-1.78.7-2.66 1.06.8 2.35.9 4.82 1.2 7.26.65 2.79 1.63 5.5 2.02 8.37.55-1.53 1.13-3.06 1.76-4.55 1.2 2.7 1.06 5.67.95 8.57-1.74.49-3.48.96-5.24 1.35-1.79-.73-3.65-1.19-5.54-1.48-.11-.65-.33-1.96-.45-2.62-.39-2.74-.49-5.53-.02-8.27.72-3.25.74-6.58.72-9.89 1.09-.37 2.18-.74 3.28-1.1z" style="fill:#cfcecf;fill-rule:nonzero" transform="translate(-134.235 -314.45)"/><path d="M579.48 626.84c1.95-.43 3.85-1 5.77-1.55.63.92 1.22 1.87 1.76 2.87-.19 3.68-.66 7.35-.63 11.06-.49 1.77-.99 3.55-1.38 5.35-2.09 1.76-3.96 3.75-5.77 5.77-2.89-2.08-5.82-4.11-8.6-6.32 2.64-2.68 6.36-2.63 9.84-2.38-.2-3.62.21-7.21 1.14-10.7-.57-.43-1.7-1.29-2.27-1.72.04-.81.09-1.6.14-2.38z" style="fill:#cccacb;fill-rule:nonzero" transform="translate(-134.235 -314.45)"/><path d="M156.03 635.68c-1.61.18-.73-2.4.38-1.92 3.68 1.65 7.8 1.41 11.72 1.94 3.42.48 6.9.16 10.24-.68 1.43.85 2.82 1.99 4.56 2.1 6.27.73 12.51-.54 18.75-1.02.42.32 1.26.96 1.68 1.29 3.62-.91 7.26-1.74 10.89-2.62-1.68 2.18-4.01 3.73-6.41 5.02-4.82 2.84-10.6 1.48-15.9 1.9-5.71.32-11.4-.45-16.93-1.83-6.29-1.56-12.72-2.52-18.98-4.18z" style="fill:#6d6d71;fill-rule:nonzero" transform="translate(-134.235 -314.45)"/><path d="M586.38 639.22c.77-1.87 1.65-3.69 2.55-5.49.09.6.26 1.82.34 2.42-.47 2.74-.37 5.53.02 8.27-1.18 1.46-2.21 3.04-2.84 4.82-.28 3.11-.5 6.22-.74 9.34 15.2.26 30.4.17 45.6.24-1.64.85-3.53.7-5.3.73-20.12-.09-40.25.21-60.36-.12 5.36-.6 10.76-.76 16.15-.73 1.89-4.49 2.85-9.28 3.2-14.13.39-1.8.89-3.58 1.38-5.35z" style="fill:#6b6a69;fill-rule:nonzero" transform="translate(-134.235 -314.45)"/><path d="M281.39 645.22c1.67-3.51 2.27-8.16 5.63-10.46 22.96-.54 45.96.02 68.94-.15 5.26.1 10.54-.22 15.79.25.06 3.35.07 6.71-.01 10.06-1.89.28-3.79.48-5.7.44-28.22-.17-56.44.18-84.65-.14z" style="fill:#69808b;fill-rule:nonzero" transform="translate(-134.235 -314.45)"/><path d="M378.33 635.29c33.5-.09 67.01.05 100.51-.03-.17 3.38-.68 6.73-1.52 10.01-33-.14-66.01.27-99.01-.23.02-3.25.02-6.51.02-9.75z" style="fill:#698190;fill-rule:nonzero" transform="translate(-134.235 -314.45)"/><path d="M834.54 640.41c.4-2.48 2.02-4.12 4.45-4.62.01 1.29.02 2.59.04 3.89-1.41.67-2.96.92-4.49.73z" style="fill:#ecebeb;fill-rule:nonzero" transform="translate(-134.235 -314.45)"/><path d="M640.78 646.31c1.47-1.75 2.85-3.57 4.16-5.44 1.08 1.42 2.07 2.93 3.12 4.39l.39.49c1.64-.03 3.29-.22 4.95-.11.83.82 1.49 1.79 2.21 2.74 1.2-.06 2.38-.12 3.6-.15-1.28.79-2.63 1.62-4.18 1.62-6.01.27-12.1.52-18.01-.82.44-1.11.89-2.21 1.35-3.31.79.19 1.6.38 2.41.59z" style="fill:#b9b9ba;fill-rule:nonzero" transform="translate(-134.235 -314.45)"/><path d="M163.9 643.8c6.69-.44 13.45-1.44 20.12-.34 7.18.52 14.28-1.18 21.45-.9-1.27 5.11-.04 10.88-2.42 15.61-8.87 2.44-18.18 1.65-27.07-.19-6.84 1.06-11.47-5.37-13.55-11.03.49-1.06.98-2.11 1.47-3.15m8.49 6.38c-1.07.19-2.9 1.24-2.19 2.55 1.63 1.37 5.55-2.87 2.19-2.55m-2.3 4.62c1.17 1.98 6.17 2.23 5.98-.75-2.01.14-4.01.37-5.98.75z" style="fill:#8c8e8e;fill-rule:nonzero" transform="translate(-134.235 -314.45)"/><path d="M529.33 644.03c3.77 1.41 7.67 2.39 11.58 3.29 4.68 1.35 9.16 3.57 14.08 3.96 5.66.46 11.34-.21 17.02-.1 2.4-.09 5 .38 7.22-.84 1.81-2.02 3.68-4.01 5.77-5.77-.35 4.85-1.31 9.64-3.2 14.13-5.39-.03-10.79.13-16.15.73-12.09.29-24.21.34-36.31.3-.06-5.24 0-10.47-.01-15.7z" style="fill:#909497;fill-rule:nonzero" transform="translate(-134.235 -314.45)"/><path d="M585.71 658.58c.24-3.12.46-6.23.74-9.34.45.31 1.37.92 1.82 1.23 15.24 1.1 30.53.87 45.8.81 15.29 0 30.57-.98 45.85-.08 17.77-.65 35.57.82 53.33-.35.58.07 1.74.21 2.33.29 1.06 2.24 1.97 4.59 2.05 7.12-35.44-.09-70.88.22-106.32.56-15.2-.07-30.4.02-45.6-.24z" style="fill:#8f9193;fill-rule:nonzero" transform="translate(-134.235 -314.45)"/><path d="M172.39 650.18c3.36-.32-.56 3.92-2.19 2.55-.71-1.31 1.12-2.36 2.19-2.55z" style="fill:#656562;fill-rule:nonzero" transform="translate(-134.235 -314.45)"/><path d="M170.09 654.8c1.97-.38 3.97-.61 5.98-.75.19 2.98-4.81 2.73-5.98.75z" style="fill:#646663;fill-rule:nonzero" transform="translate(-134.235 -314.45)"/></svg>